<svg xmlns="http://www.w3.org/2000/svg" width="384.514" height="320.883"><g data-name="undraw_mobile_development_re_wwsn (1)" transform="translate(0 1.38)"><path data-name="Path 44" d="M162.124-1.38h71.148c32.435 0 51.15 4.674 51.15 37.109v223.8a58.728 58.728 0 01-58.728 58.728h-57.209a58.728 58.728 0 01-58.728-58.731V35.728c0-32.434 19.932-37.108 52.367-37.108z" fill="#3f3d56"/><path data-name="Path 2" d="M281.475 31.468v255.321a28.552 28.552 0 01-28.52 28.52H141.224a28.553 28.553 0 01-28.52-28.52V31.468a28.553 28.553 0 0128.52-28.52h14.611v5.047a8.616 8.616 0 008.614 8.615h65.28a8.616 8.616 0 008.615-8.615V2.947h14.611a28.553 28.553 0 0128.52 28.521z" fill="#fff"/><path data-name="Path 3" d="M108.954 64.562a2.146 2.146 0 01-2.143-2.143v-4.286a2.143 2.143 0 014.286 0v4.286a2.146 2.146 0 01-2.143 2.143z" fill="#3f3d56"/><path data-name="Path 4" d="M108.954 86.54a2.146 2.146 0 01-2.143-2.143v-11.8a2.143 2.143 0 014.286 0v11.8a2.146 2.146 0 01-2.143 2.143z" fill="#3f3d56"/><path data-name="Path 5" d="M108.954 104.211a2.146 2.146 0 01-2.143-2.143v-11.8a2.143 2.143 0 014.286 0v11.8a2.146 2.146 0 01-2.143 2.143z" fill="#3f3d56"/><path data-name="Path 6" d="M284.69 94.565a2.146 2.146 0 01-2.143-2.143V63.633a2.143 2.143 0 014.286 0v28.789a2.146 2.146 0 01-2.143 2.143z" fill="#3f3d56"/><path data-name="Path 7" d="M201.694 9.829h-16.61a1.34 1.34 0 110-2.679h16.609a1.34 1.34 0 010 2.679z" fill="#fff"/><circle data-name="Ellipse 2" cx="1.072" cy="1.072" r="1.072" transform="translate(209.194 7.418)" fill="#fff"/><path data-name="Path 8" d="M339.017 304.869a1.909 1.909 0 001.352-3.323l-.136-.519a5.13 5.13 0 019.51-.183c2.313 5.275 5.294 10.731 3.893 16.579 9.427-20.482 5.913-45.813-8.471-63.115a15.65 15.65 0 01-8.045-10.4c1.951.641 4.361-.965 2.879-3-.641-.777-1.289-1.548-1.93-2.325 7.313-7.939 16.234 4.344 8.2 15.042a61.223 61.223 0 016.978 10.689 25.741 25.741 0 011.423-11.97c1.437-3.562 4.165-6.577 6.564-9.668a5.284 5.284 0 019.45 2.64c-2.716.921-3.032 4.86.089 5.369a26.353 26.353 0 01-14.322 20.941 61.46 61.46 0 013.6 25.656c1.3-10.186 12.2-12.758 19.794-16.874a2.973 2.973 0 014.563 2.968 17.178 17.178 0 00-2.995 1.617 2.6 2.6 0 001.251 4.726c-3.756 9.558-13.642 16.046-23.858 16.108a63.189 63.189 0 01-4.126 12.431l-15.162.144c-.056-.168-.107-.341-.157-.51a17.227 17.227 0 004.193-.29c-3.755-4.361-6.648-6.576-4.545-12.734z" fill="#f2f2f2"/><path data-name="Path 9" d="M45.539 304.869a1.909 1.909 0 01-1.352-3.323l.136-.519a5.13 5.13 0 00-9.509-.18c-2.313 5.275-5.294 10.731-3.893 16.579-9.427-20.482-5.913-45.813 8.471-63.115a15.65 15.65 0 008.044-10.4c-1.951.641-4.361-.965-2.879-3 .641-.777 1.289-1.548 1.93-2.325-7.313-7.939-16.234 4.344-8.2 15.042a61.223 61.223 0 00-6.978 10.689 25.74 25.74 0 00-1.423-11.97c-1.437-3.562-4.166-6.577-6.564-9.668a5.284 5.284 0 00-9.45 2.64c2.716.921 3.032 4.86-.089 5.369a26.353 26.353 0 0014.322 20.941 61.459 61.459 0 00-3.6 25.656c-1.3-10.186-12.2-12.758-19.794-16.874a2.973 2.973 0 00-4.563 2.968 17.178 17.178 0 012.995 1.617 2.6 2.6 0 01-1.251 4.726c3.756 9.558 13.642 16.046 23.858 16.108a63.186 63.186 0 004.126 12.431l15.162.144c.056-.168.107-.341.157-.51a17.226 17.226 0 01-4.193-.29c3.755-4.361 6.648-6.576 4.545-12.734z" fill="#f2f2f2"/><path data-name="Path 10" d="M149.451 15.577h-14.466a2.679 2.679 0 010-5.358h14.466a2.679 2.679 0 110 5.358z" fill="#e6e6e6"/><circle data-name="Ellipse 3" cx="2.411" cy="2.411" r="2.411" transform="translate(241.874 10.487)" fill="#e6e6e6"/><circle data-name="Ellipse 4" cx="2.411" cy="2.411" r="2.411" transform="translate(249.375 10.487)" fill="#e6e6e6"/><circle data-name="Ellipse 5" cx="2.411" cy="2.411" r="2.411" transform="translate(256.876 10.487)" fill="#e6e6e6"/><path data-name="Path 11" d="M242.599 53.02h-90.925a6.653 6.653 0 00-6.644 6.644v59.1a6.653 6.653 0 006.644 6.644h90.922a6.65 6.65 0 006.644-6.644v-59.1a6.65 6.65 0 00-6.641-6.644z" fill="#f2f2f2"/><path data-name="Path 12" d="M214.134 78.25a424.024 424.024 0 01-27.151 42.016h-14.262q14.009-17.066 28.038-34.133c2.683-3.276 5.6-6.708 9.62-8.039z" fill="#3f3d56"/><path data-name="Path 13" d="M195.191 75.921a72.52 72.52 0 00-4.254 4.836c-2.954 3.557-5.866 7.145-8.788 10.722-1.82 2.226-3.64 4.451-5.439 6.677a13.277 13.277 0 01-1.622-1.227 14.551 14.551 0 1118.6-22.383 13.4 13.4 0 011.506 1.375z" fill="#f90"/><path data-name="Path 14" d="M249.242 74.232v2.159l-.964-.354-13.571-4.961a141.675 141.675 0 00-13.395-4.618 21.111 21.111 0 00-12.13.155 27.834 27.834 0 00-9.451 5.867 76.258 76.258 0 00-3.5 3.44c-.37.391-.739.782-1.1 1.173a67.93 67.93 0 00-3.15 3.665c-2.952 3.558-5.867 7.147-8.787 10.721-1.822 2.229-3.643 4.452-5.443 6.676q-9.029 11.029-17.936 22.111a10.464 10.464 0 01-2.373-.3q9.089-11.292 18.265-22.524l.418-.514c.718-.895 1.452-1.795 2.181-2.69q4.573-5.6 9.151-11.192c2.218-2.711 4.42-5.433 6.81-8 .145-.166.295-.327.45-.493.23-.246.461-.488.7-.739 5.192-5.363 11.669-10.1 19.427-10.233 4.565-.07 8.974 1.377 13.218 2.9 4.57 1.656 9.124 3.338 13.689 5.01z" fill="#3f3d56"/><path data-name="Path 15" d="M251.381 255.899H142.8a6.651 6.651 0 01-6.643-6.643v-14.634a6.651 6.651 0 016.643-6.643h108.58a6.651 6.651 0 016.643 6.643v14.634a6.651 6.651 0 01-6.642 6.643z" fill="#f2f2f2"/><path data-name="Path 16" d="M251.381 180.89H142.8a6.651 6.651 0 01-6.643-6.643v-14.634a6.651 6.651 0 016.643-6.643h108.58a6.651 6.651 0 016.643 6.643v14.634a6.651 6.651 0 01-6.642 6.643z" fill="#f2f2f2"/><path data-name="Path 17" d="M251.381 218.394H142.8a6.651 6.651 0 01-6.643-6.643v-14.634a6.651 6.651 0 016.643-6.643h108.58a6.651 6.651 0 016.643 6.643v14.634a6.651 6.651 0 01-6.642 6.643z" fill="#f2f2f2"/><path data-name="Path 18" d="M210.281 239.435h-31.992a1.431 1.431 0 010-2.862h31.992a1.431 1.431 0 010 2.862z" fill="#fff"/><path data-name="Path 19" d="M241.051 247.306h-63.12a1.431 1.431 0 010-2.862h63.12a1.431 1.431 0 010 2.862z" fill="#fff"/><circle data-name="Ellipse 6" cx="9.596" cy="9.596" r="9.596" transform="translate(151.697 232.343)" fill="#fff"/><path data-name="Path 20" d="M159.154 254.9a4.149 4.149 0 00-5.466 1.9 3.977 3.977 0 00-.235.614l-14.45.864-2.142 7.486 19.666-3.323a4.138 4.138 0 004.547-2.2 3.96 3.96 0 00-1.82-5.291z" fill="#ffb6b6"/><path data-name="Path 21" d="M127.26 217.975a7.165 7.165 0 00-9.668 4.909l-3.973 16.043.747 28.066s20.736 3.979 24.217 1.421 3.154-4.462 3.481-2.558 1.821 2.7 1.842 1.945.19-.628 1.057-.856 4.7-1.639 4.7-1.639l.171-8s-6.329-2.4-7.865-1.684.327 1.9-1.536.716-2.066-4.938-2.384-1.558-1.251 4.008-2.647 2.506-7.865-.543-7.865-.543l4.117-31.2a7.164 7.164 0 00-4.394-7.568z" fill="#f90"/><path data-name="Path 22" d="M266.903 301.204l.218-5.91-22.691-3.654-.321 8.722z" fill="#ffb6b6"/><path data-name="Path 23" d="M262.785 302.983l-.215-9.462 4.045.149 6.531-8.748a2.529 2.529 0 014.553 1.606l-.415 11.24-4.073 1.79 3.973.9-.156 4.238z" fill="#2f2e41"/><path data-name="Path 24" d="M139.195 314.757l71.871-8.358s31.036 1.793 38.318-2.944l7.679-.97.416-11.28s-4.7.035-7.4-1.223-.823-2.8-3.4-1.284-2.3 1.7-4.292 1-93.253-4.426-93.253-4.426z" fill="#2f2e41"/><path data-name="Path 25" d="M233.902 309.862l4.179-4.184-14.15-18.111-6.168 6.175z" fill="#ffb6b6"/><path data-name="Path 26" d="M229.672 308.365l6.278-7.083 2.864 2.861 10.737-1.971a2.528 2.528 0 012.246 4.274l-7.949 7.958-4.2-1.458 2.3 3.365-3 3z" fill="#2f2e41"/><path data-name="Path 27" d="M110.839 275.395l.714 16.609c.841 19.552 22.374 31.386 39.071 21.178q.462-.282.926-.585s6.33-1.7 6.138-4.392 1.354-4 2.723-3.268 19.289-24.694 19.289-24.694 37.227 18.569 45.44 22.941l8.66-2.362s3.261 1.54 2.087-.687-1.385-1.161-1.746-3.588-1.284-5.436-1.844-5.31-46.054-31.715-46.054-31.715-7.411-7.5-16.605-2.548c-.192.728-.028.753-.028.753l-30.37 24.747-4.291-8.15z" fill="#2f2e41"/><path data-name="Path 28" d="M131.252 214.368l-13.021-6.1-3.9 6.783s-10.47 14.941-10.622 25.72 1.706 13.984 1.706 13.984-4.514 3.375-2.257 5.438 7.254 2.953 3.416 3.847-2.865 9.949 1.421 11.556 27.306 1.593 27.306 1.593a4.1 4.1 0 011.013-4.037c1.785-1.789 3.392-.505 1.785-3.29s-4.286-1.178-2.143-4.928 2.142-4.871 2.142-4.871 4.369-8.315-2.212-17.335c-.4-.55-.064-.571-.064-.571l-5.314-17.807z" fill="#f90"/><path data-name="Path 29" d="M110.267 188.708c.11 2.751-1.623 6.647-2.477 9-.913 2.512 3.043 5.847 5.575 6.577a3.745 3.745 0 011.226-2.249 6.411 6.411 0 00-.047 2.523l21.4 4.872c3.85-4.459 7.722-10.869 6.878-18.6a7.522 7.522 0 00-3.622-7.5l-10.82-6.392c-4.6-1.048-10.4-1.68-13.723 1.168a13.167 13.167 0 00-4.393 10.605z" fill="#2f2e41"/><circle data-name="Ellipse 7" cx="12.323" cy="12.323" r="12.323" transform="translate(117.076 182.428)" fill="#ffb6b6"/><path data-name="Path 30" d="M114.962 188.167l-.595 2.612 10.4 2.367a3.834 3.834 0 011.279-2.792 6.531 6.531 0 00.075 3.1c5.607 3.146 10.66 4.261 15.191 3.458a2.374 2.374 0 002.842-1.788 15.2 15.2 0 00-10.927-18.18 15 15 0 00-18.265 11.224z" fill="#41372e"/><path data-name="Path 31" d="M121.041 170.933c1.371-.3 2.822-.226 4.061-1.154l-.813 1.866a9.444 9.444 0 016.743.673 3.605 3.605 0 011.527 1.292 2.655 2.655 0 01.2 2.287 2.487 2.487 0 01-1.456 1.383 4.8 4.8 0 01-1.782.187l-7.59-.177a5.676 5.676 0 01-2.8-.544 2.8 2.8 0 01-1.3-2.777 3.963 3.963 0 013.21-3.036z" fill="#2f2e41"/><path data-name="Path 32" d="M187.887 267.511a.531.531 0 00-.1-.093 1.079 1.079 0 00-.33-.258l-.9-.483-5.986-6.646a1.5 1.5 0 00-1.124-.107h-.015l-2.565.793-2.206.685-3.081.955-20.984 6.5-13.794 4.271a1.492 1.492 0 00-.98 1.847 1.553 1.553 0 00.315.56l.439.489.921 1.026 2.133 4.42.592.661a1.487 1.487 0 001.536.431l45.442-12.636a1.513 1.513 0 00.691-2.415z" fill="#ccc"/><path data-name="Path 33" d="M185.189 201.771l-.88.143a.926.926 0 00-.6.372l-.388.542-3.5 8.745a.926.926 0 00-.159.69l.41 2.492-1.549 44.473a.937.937 0 00.346.581l6.79 9.083.159.126.342.268a.941.941 0 00.614.2l.577-.028a.927.927 0 00.678-.346.913.913 0 00.193-.734l-1.97-65.841a.924.924 0 00-1.062-.762z" fill="#ccc"/><path data-name="Path 34" d="M183.715 205.226l-3.1 9.437-1.2 37.694 4.822 4.286z" fill="#f90"/><path data-name="Path 35" d="M159.76 262.724a4.149 4.149 0 00-5.466 1.9 4 4 0 00-.235.615l-14.45.863-2.141 7.486 19.666-3.323a4.138 4.138 0 004.547-2.2 3.96 3.96 0 00-1.822-5.3z" fill="#ffb6b6"/><path data-name="Path 36" d="M127.868 225.798a7.165 7.165 0 00-9.668 4.909l-3.973 16.043.747 28.066s20.736 3.979 24.217 1.421 3.154-4.462 3.481-2.558 1.821 2.7 1.842 1.945.19-.628 1.057-.856 4.7-1.639 4.7-1.639l.171-8s-6.329-2.4-7.865-1.684.327 1.9-1.536.716-2.066-4.938-2.384-1.558-1.251 4.008-2.647 2.506-7.866-.543-7.866-.543l4.117-31.2a7.165 7.165 0 00-4.393-7.568z" fill="#f90"/><path data-name="Path 37" d="M0 318.865a.636.636 0 00.638.638h383.239a.638.638 0 000-1.275H.635a.636.636 0 00-.638.638z" fill="#ccc"/><path data-name="Path 38" d="M338.177 180.89H229.596a6.651 6.651 0 01-6.643-6.643v-14.634a6.651 6.651 0 016.643-6.643h108.581a6.651 6.651 0 016.643 6.643v14.634a6.651 6.651 0 01-6.643 6.643z" fill="#e6e6e6"/><path data-name="Path 39" d="M297.078 164.425h-31.992a1.431 1.431 0 010-2.862h31.992a1.431 1.431 0 010 2.862z" fill="#fff"/><path data-name="Path 40" d="M327.848 172.296h-63.12a1.431 1.431 0 010-2.862h63.12a1.431 1.431 0 010 2.862z" fill="#fff"/><circle data-name="Ellipse 8" cx="9.596" cy="9.596" r="9.596" transform="translate(238.494 157.334)" fill="#fff"/><path data-name="Path 41" d="M303.351 218.394H194.77a6.651 6.651 0 01-6.643-6.643v-14.634a6.651 6.651 0 016.643-6.643h108.58a6.651 6.651 0 016.643 6.643v14.634a6.651 6.651 0 01-6.642 6.643z" fill="#e6e6e6"/><path data-name="Path 42" d="M262.252 201.93H230.26a1.431 1.431 0 110-2.862h31.992a1.431 1.431 0 010 2.862z" fill="#fff"/><path data-name="Path 43" d="M293.023 209.801h-63.12a1.431 1.431 0 110-2.862h63.12a1.431 1.431 0 010 2.862z" fill="#fff"/><circle data-name="Ellipse 9" cx="9.596" cy="9.596" r="9.596" transform="translate(203.668 194.839)" fill="#fff"/></g></svg>